<svg width="26" height="26" viewBox="0 0 26 26" fill="none" xmlns="http://www.w3.org/2000/svg">
<path d="M25 13C25 19.6274 19.6274 25 13 25C11.4038 25 9.88041 24.6884 8.48732 24.1226C8.2207 24.0143 8.08739 23.9602 7.97963 23.936C7.87421 23.9124 7.7962 23.9037 7.68818 23.9037C7.57774 23.9037 7.45745 23.9238 7.21687 23.9639L2.47301 24.7545C1.97624 24.8373 1.72786 24.8787 1.54825 24.8017C1.39104 24.7342 1.26577 24.609 1.19835 24.4518C1.12131 24.2721 1.16271 24.0238 1.2455 23.527L2.03614 18.7831C2.07624 18.5426 2.09629 18.4223 2.09628 18.3118C2.09626 18.2038 2.08762 18.1258 2.06399 18.0204C2.03984 17.9126 1.9857 17.7793 1.87742 17.5127C1.31165 16.1196 1 14.5962 1 13C1 6.37258 6.37258 1 13 1C19.6274 1 25 6.37258 25 13Z" stroke="white" stroke-width="2" stroke-linecap="round" stroke-linejoin="round"/>
</svg>
