<svg width="40" height="40" viewBox="0 0 40 40" fill="none" xmlns="http://www.w3.org/2000/svg">
  <g clip-path="url(#clip0_3795_900)">
    <rect width="40" height="40" rx="12" fill="#E3DFFA"/>
    <path
      d="M0 12C0 5.37258 5.37258 0 12 0H28C34.6274 0 40 5.37258 40 12V28C40 34.6274 34.6274 40 28 40H12C5.37258 40 0 34.6274 0 28V12Z"
      fill="#E3DFFA"/>
    <rect width="40" height="40" fill="black"/>
    <path
      d="M30.1327 15.8867V19.6635C29.4728 19.599 28.6154 19.4491 27.6669 19.1015C26.4285 18.6475 25.5066 18.0267 24.9028 17.546V25.1794L24.8874 25.1556C24.8972 25.3069 24.9028 25.4611 24.9028 25.6166C24.9028 29.4074 21.8192 32.4933 18.0282 32.4933C14.2371 32.4933 11.1536 29.4074 11.1536 25.6166C11.1536 21.8258 14.2371 18.7386 18.0282 18.7386C18.3994 18.7386 18.7637 18.768 19.1196 18.8255V22.5476C18.7777 22.4256 18.4107 22.3598 18.0282 22.3598C16.2335 22.3598 14.7723 23.82 14.7723 25.6166C14.7723 27.4132 16.2335 28.8735 18.0282 28.8735C19.8228 28.8735 21.2841 27.4118 21.2841 25.6166C21.2841 25.5493 21.2827 25.4821 21.2785 25.4148V10.5811H25.0513C25.0653 10.9006 25.0779 11.2229 25.0919 11.5424C25.1172 12.1716 25.3413 12.7756 25.7322 13.2703C26.1903 13.8519 26.867 14.5274 27.8168 15.0669C28.7065 15.5714 29.5415 15.7872 30.1327 15.8895V15.8867Z"
      fill="#FF004F"/>
    <path
      d="M28.837 12.8202V16.597C28.1771 16.5325 27.3197 16.3825 26.3713 16.035C25.1328 15.5809 24.211 14.9601 23.6071 14.4795V22.1128L23.5917 22.089C23.6015 22.2404 23.6071 22.3945 23.6071 22.5501C23.6071 26.3409 20.5236 29.4267 16.7325 29.4267C12.9415 29.4267 9.85791 26.3409 9.85791 22.5501C9.85791 18.7593 12.9415 15.672 16.7325 15.672C17.1038 15.672 17.468 15.7015 17.8239 15.7589V19.481C17.4821 19.3591 17.115 19.2932 16.7325 19.2932C14.9379 19.2932 13.4766 20.7535 13.4766 22.5501C13.4766 24.3467 14.9379 25.8069 16.7325 25.8069C18.5272 25.8069 19.9884 24.3453 19.9884 22.5501C19.9884 22.4828 19.987 22.4155 19.9828 22.3483V7.51172H23.7556C23.7697 7.83124 23.7823 8.15356 23.7963 8.47308C23.8215 9.1023 24.0457 9.7063 24.4365 10.201C24.8946 10.7826 25.5713 11.458 26.5212 11.9976C27.4108 12.5007 28.2458 12.7179 28.837 12.8202Z"
      fill="#00F7EF"/>
    <path
      d="M29.6603 14.4712V18.248C29.0004 18.1835 28.143 18.0336 27.1945 17.686C25.9561 17.232 25.0342 16.6111 24.4304 16.1305V23.7639L24.415 23.74C24.4248 23.8914 24.4304 24.0455 24.4304 24.2011C24.4304 27.9919 21.3468 31.0777 17.5558 31.0777C13.7647 31.0777 10.6812 27.9919 10.6812 24.2011C10.6812 20.4103 13.7647 17.323 17.5558 17.323C17.927 17.323 18.2913 17.3525 18.6471 17.4099V21.132C18.3053 21.0101 17.9382 20.9442 17.5558 20.9442C15.7611 20.9442 14.2999 22.4045 14.2999 24.2011C14.2999 25.9977 15.7611 27.4579 17.5558 27.4579C19.3504 27.4579 20.8117 25.9963 20.8117 24.2011C20.8117 24.1338 20.8103 24.0666 20.806 23.9993V9.16553H24.5789C24.5929 9.48505 24.6055 9.80737 24.6195 10.1269C24.6447 10.7561 24.8689 11.3601 25.2598 11.8548C25.7179 12.4364 26.3946 13.1119 27.3444 13.6514C28.2341 14.1545 29.069 14.3717 29.6603 14.474V14.4712Z"
      fill="white"/>
  </g>
  <defs>
    <clipPath id="clip0_3795_900">
      <rect width="40" height="40" rx="12" fill="white"/>
    </clipPath>
  </defs>
</svg>
